<svg width="90" height="90" viewBox="0 0 90 90" fill="none" xmlns="http://www.w3.org/2000/svg">
<path d="M43.6875 72.0748C27.1875 72.0748 13.6875 46.9311 13.6875 30.4498C13.6875 13.9686 27.1312 12.3936 43.6875 12.3936C60.2437 12.3936 73.125 34.2561 73.125 50.7373C73.125 67.2186 60.1687 72.0748 43.6875 72.0748Z" fill="#D6EDF6"/>
<path d="M56.25 63.4682C57.485 64.2196 58.5873 65.1699 59.5125 66.2807C69 48.9557 59.5125 43.9307 59.5125 43.9307" stroke="black" stroke-width="0.81" stroke-linejoin="round"/>
<path d="M33.75 63.4682C32.5151 64.2196 31.4127 65.1699 30.4875 66.2807C21 48.9557 30.4875 43.9307 30.4875 43.9307" stroke="black" stroke-width="0.81" stroke-linejoin="round"/>
<path d="M48.2813 33.8811C48.2837 33.424 48.1958 32.9709 48.0226 32.5479C47.8494 32.1248 47.5943 31.7402 47.2719 31.4161C46.9496 31.0921 46.5664 30.8349 46.1443 30.6594C45.7222 30.4839 45.2696 30.3935 44.8125 30.3936" stroke="black" stroke-width="0.81" stroke-linejoin="round"/>
<path d="M40.7626 71.8496V80.5121" stroke="black" stroke-width="0.81" stroke-linejoin="round"/>
<path d="M49.4438 71.8496V80.5121" stroke="black" stroke-width="0.81" stroke-linejoin="round"/>
<path d="M45.1875 71.8496V82.4434" stroke="black" stroke-width="0.81" stroke-linejoin="round"/>
<path d="M53.9439 19.0311C52.5577 15.4626 50.6287 12.1295 48.2251 9.14983C47.8779 8.66594 47.4205 8.2717 46.8906 7.99974C46.3608 7.72779 45.7738 7.58594 45.1782 7.58594C44.5827 7.58594 43.9957 7.72779 43.4658 7.99974C42.936 8.2717 42.4785 8.66594 42.1313 9.14983C39.7645 12.1313 37.8675 15.4573 36.5063 19.0123" stroke="black" stroke-width="0.81" stroke-linejoin="round"/>
<path d="M53.9438 19.0314C56.0422 24.4467 57.092 30.2116 57.0375 36.0189C56.9622 47.08 55.3595 58.0777 52.275 68.7002H38.0813C34.9967 58.0777 33.3941 47.08 33.3188 36.0189C33.2646 30.2055 34.3144 24.4346 36.4125 19.0127L53.9438 19.0314Z" stroke="black" stroke-width="0.81" stroke-linejoin="round"/>
<path d="M45 26.7744C43.7318 26.7744 42.492 27.1505 41.4374 27.8551C40.3829 28.5597 39.561 29.5612 39.0757 30.733C38.5903 31.9047 38.4633 33.194 38.7107 34.4379C38.9582 35.6818 39.5689 36.8244 40.4657 37.7212C41.3625 38.618 42.5051 39.2288 43.749 39.4762C44.9929 39.7236 46.2823 39.5966 47.454 39.1113C48.6257 38.6259 49.6272 37.804 50.3318 36.7495C51.0364 35.695 51.4125 34.4552 51.4125 33.1869C51.4125 32.3448 51.2467 31.511 50.9244 30.733C50.6021 29.955 50.1298 29.248 49.5343 28.6526C48.9389 28.0571 48.232 27.5848 47.454 27.2625C46.676 26.9403 45.8421 26.7744 45 26.7744V26.7744Z" stroke="black" stroke-width="0.81" stroke-linejoin="round"/>
</svg>
